<svg id="Layer_1" data-name="Layer 1" xmlns="http://www.w3.org/2000/svg" viewBox="0 0 140 140"><defs><style>.cls-1{fill:#f05a22;}.cls-2{fill:#fff;}</style></defs><title>25-kk-logo-shortcut-or</title><circle class="cls-1" cx="70" cy="70" r="64"/><path class="cls-2" d="M54.34,41V69.2a1.07,1.07,0,0,1-.87,1.06c-3.6.68-17.16,2.5-17.16-9V41.09c0-11.12,18-11.37,18-.13"/><path class="cls-2" d="M79,60.43V88.68a1.07,1.07,0,0,1-.87,1c-3.61.69-17.17,2.51-17.17-9V60.56c0-11.12,18-11.36,18-.13"/><path class="cls-2" d="M103.69,77.52v28.25a1.07,1.07,0,0,1-.87,1.06c-3.6.68-17.16,2.5-17.16-9V77.65c0-11.11,18-11.36,18-.13"/></svg>